<?xml version="1.0" encoding="UTF-8" standalone="no"?>
<!-- Generator: Adobe Illustrator 18.0.0, SVG Export Plug-In . SVG Version: 6.00 Build 0)  -->

<svg
   xmlns:dc="http://purl.org/dc/elements/1.1/"
   xmlns:cc="http://creativecommons.org/ns#"
   xmlns:rdf="http://www.w3.org/1999/02/22-rdf-syntax-ns#"
   xmlns:svg="http://www.w3.org/2000/svg"
   xmlns="http://www.w3.org/2000/svg"
   xmlns:sodipodi="http://sodipodi.sourceforge.net/DTD/sodipodi-0.dtd"
   xmlns:inkscape="http://www.inkscape.org/namespaces/inkscape"
   version="1.1"
   id="Capa_1"
   x="0px"
   y="0px"
   viewBox="0 0 56 56"
   style="enable-background:new 0 0 56 56;"
   xml:space="preserve"
   inkscape:version="0.91 r13725"
   sodipodi:docname="logo3.svg"><metadata
     id="metadata59"><rdf:RDF><cc:Work
         rdf:about=""><dc:format>image/svg+xml</dc:format><dc:type
           rdf:resource="http://purl.org/dc/dcmitype/StillImage" /><dc:title></dc:title></cc:Work></rdf:RDF></metadata><defs
     id="defs57" /><sodipodi:namedview
     pagecolor="#ffffff"
     bordercolor="#666666"
     borderopacity="1"
     objecttolerance="10"
     gridtolerance="10"
     guidetolerance="10"
     inkscape:pageopacity="0"
     inkscape:pageshadow="2"
     inkscape:window-width="1438"
     inkscape:window-height="1232"
     id="namedview55"
     showgrid="false"
     inkscape:zoom="4.3381001"
     inkscape:cx="9.4817485"
     inkscape:cy="-16.879982"
     inkscape:window-x="534"
     inkscape:window-y="100"
     inkscape:window-maximized="0"
     inkscape:current-layer="Capa_1" /><g
     id="g4316"
     transform="matrix(0.03181716,-0.05986186,0.05986186,0.03181716,26.570769,49.488405)"
     style="fill:#333333"
     inkscape:export-filename="/home/al/Projekte/piripherals/doc/_static/logo.png"
     inkscape:export-xdpi="170.28999"
     inkscape:export-ydpi="170.28999"><g
       id="g4276"
       style="fill:#333333"><path
         id="path4278"
         d="m 295,176.828 0,172.869 c 0,14.188 -11.502,25.701 -25.696,25.701 -14.194,0 -25.697,-11.513 -25.697,-25.701 l 0,-7.583 c -2.292,0.343 -4.618,0.579 -7.009,0.579 l -79.901,0 c -25.804,0 -46.721,-20.913 -46.721,-46.72 l 0,-10.748 -20.05,0 c -8.715,0 -12.416,-4.52 -13.98,-11.299 C 31.086,264.103 -2.976,215.529 28.543,170.869 41.79,152.105 70.086,131.525 60.627,105.345 51.114,79.006 20.98,64.051 3.53,43.435 -8.069,29.741 11.65,9.815 23.339,23.626 c 17.475,20.643 42.783,34.711 56.86,58.304 12.938,21.678 13.795,48.255 -0.733,69.514 -12.354,18.071 -38.093,36.635 -34.897,61.065 2.209,16.864 15.981,28.695 31.725,33.313 l 0.012,-0.624 c 1.759,-5.959 5.542,-9.811 13.615,-9.811 l 20.049,0 0,-4.832 c 0,-25.796 20.917,-46.718 46.72,-46.718 l 79.902,0 c 2.392,0 4.717,0.241 7.01,0.583 l 0,-7.586 c 0,-14.189 11.504,-25.696 25.698,-25.696 14.194,0 25.7,11.502 25.7,25.69 z m 99.357,38.465 c 0,-10.062 -8.166,-18.221 -18.224,-18.221 l -73.193,0 0,36.443 73.193,0 c 10.063,0.001 18.224,-8.153 18.224,-18.222 z m -18.224,76.472 -73.193,0 0,36.444 73.193,0 c 10.058,0 18.224,-8.159 18.224,-18.223 0,-10.062 -8.161,-18.221 -18.224,-18.221 z"
         inkscape:connector-curvature="0"
         style="fill:#333333" /></g><g
       id="g4280"
       style="fill:#333333" /><g
       id="g4282"
       style="fill:#333333" /><g
       id="g4284"
       style="fill:#333333" /><g
       id="g4286"
       style="fill:#333333" /><g
       id="g4288"
       style="fill:#333333" /><g
       id="g4290"
       style="fill:#333333" /><g
       id="g4292"
       style="fill:#333333" /><g
       id="g4294"
       style="fill:#333333" /><g
       id="g4296"
       style="fill:#333333" /><g
       id="g4298"
       style="fill:#333333" /><g
       id="g4300"
       style="fill:#333333" /><g
       id="g4302"
       style="fill:#333333" /><g
       id="g4304"
       style="fill:#333333" /><g
       id="g4306"
       style="fill:#333333" /><g
       id="g4308"
       style="fill:#333333" /></g><g
     id="g3"
     transform="translate(-6.2081578,-0.0704374)"
     inkscape:export-filename="/home/al/Projekte/piripherals/doc/_static/logo.png"
     inkscape:export-xdpi="170.28999"
     inkscape:export-ydpi="170.28999"><path
       style="fill:#c62a6a"
       d="M 47.156,32 C 48.572,31.005 49.5,29.362 49.5,27.5 49.5,25.362 48.277,23.513 46.495,22.603 46.496,22.568 46.5,22.535 46.5,22.5 46.5,19.922 44.724,17.765 42.331,17.169 41.735,14.776 39.578,13 37,13 34.563,13 32.5,14.586 31.778,16.782 30.831,15.122 29.048,14 27,14 25.138,14 23.495,14.928 22.5,16.344 21.505,14.928 19.862,14 18,14 15.83,14 13.959,15.26 13.064,17.085 10.473,17.53 8.5,19.782 8.5,22.5 c 0,0.55 0.083,1.081 0.234,1.582 C 7.381,25.084 6.5,26.687 6.5,28.5 c 0,1.839 0.906,3.463 2.292,4.461 C 7.987,33.918 7.5,35.152 7.5,36.5 c 0,2.744 2.012,5.013 4.641,5.426 -0.408,0.768 -0.641,1.644 -0.641,2.574 0,2.578 1.776,4.735 4.169,5.331 C 16.265,52.224 18.422,54 21,54 22.159,54 23.232,53.64 24.119,53.028 25.034,54.792 26.875,56 29,56 30.947,56 32.654,54.985 33.632,53.458 34.35,53.802 35.151,54 36,54 38.877,54 41.234,51.79 41.476,48.976 44.29,48.734 46.5,46.377 46.5,43.5 46.5,42.818 46.37,42.169 46.144,41.566 48.116,40.73 49.5,38.777 49.5,36.5 49.5,34.638 48.572,32.995 47.156,32 Z"
       id="path5"
       inkscape:connector-curvature="0" /><g
       id="g7"><path
         style="fill:#659c35"
         d="m 26.976,0 c 0,0 0.043,0.016 0.106,0.041 C 27.144,0.016 27.187,0 27.187,0 l -0.211,0 z"
         id="path9"
         inkscape:connector-curvature="0" /><path
         style="fill:#659c35"
         d="M 13.605,16.221 C 14.607,14.879 16.196,14 18,14 c 1.862,0 3.505,0.928 4.5,2.344 C 23.495,14.928 25.138,14 27,14 c 2.048,0 3.831,1.122 4.778,2.782 C 32.5,14.586 34.563,13 37,13 c 1.929,0 3.621,0.995 4.601,2.498 C 43.925,13.774 45.651,11.593 46.5,9 36.575,5.625 33.484,10 33.484,10 32.883,2.606 27.843,0.342 27.082,0.041 26.319,0.342 21.28,2.606 20.679,10 c 0,0 -3.091,-4.375 -13.016,-1 0.972,2.969 3.087,5.402 5.942,7.221 z"
         id="path11"
         inkscape:connector-curvature="0" /></g><path
       style="fill:#e53384"
       d="m 16.357,28.997 c -1.243,0 -2.535,-0.461 -3.593,-1.61 -0.374,-0.406 -0.348,-1.039 0.059,-1.413 0.406,-0.375 1.039,-0.348 1.413,0.059 1.206,1.309 2.798,1.089 3.796,0.502 0.992,-0.584 1.954,-1.864 1.396,-3.548 -0.174,-0.524 0.111,-1.09 0.635,-1.263 0.525,-0.173 1.09,0.111 1.263,0.635 0.872,2.635 -0.517,4.862 -2.281,5.9 -0.775,0.456 -1.716,0.738 -2.688,0.738 z"
       id="path13"
       inkscape:connector-curvature="0" /><path
       style="fill:#e53384"
       d="m 37.264,41.325 c -1.243,0 -2.535,-0.461 -3.593,-1.61 -0.374,-0.406 -0.348,-1.039 0.059,-1.413 0.407,-0.375 1.039,-0.348 1.413,0.059 1.206,1.309 2.799,1.088 3.796,0.502 0.992,-0.584 1.954,-1.864 1.396,-3.548 -0.174,-0.524 0.111,-1.09 0.635,-1.263 0.524,-0.175 1.09,0.111 1.263,0.635 0.872,2.635 -0.517,4.862 -2.281,5.9 -0.775,0.456 -1.716,0.738 -2.688,0.738 z"
       id="path15"
       inkscape:connector-curvature="0" /><path
       style="fill:#e53384"
       d="m 20.698,41.998 c -0.227,0 -0.45,-0.014 -0.669,-0.042 -2.037,-0.259 -4.198,-1.762 -4.436,-4.534 -0.047,-0.55 0.36,-1.035 0.911,-1.082 0.549,-0.048 1.035,0.36 1.082,0.911 0.152,1.774 1.547,2.574 2.696,2.721 1.142,0.141 2.686,-0.279 3.276,-1.952 0.183,-0.521 0.756,-0.796 1.275,-0.61 0.521,0.184 0.794,0.754 0.61,1.275 -0.823,2.336 -2.872,3.313 -4.745,3.313 z"
       id="path17"
       inkscape:connector-curvature="0" /><path
       style="fill:#e53384"
       d="m 29.698,32.661 c -0.227,0 -0.45,-0.014 -0.669,-0.042 -2.036,-0.26 -4.197,-1.762 -4.435,-4.534 -0.047,-0.55 0.36,-1.035 0.911,-1.082 0.548,-0.047 1.035,0.36 1.082,0.911 0.152,1.774 1.547,2.574 2.696,2.72 1.142,0.147 2.686,-0.278 3.276,-1.952 0.183,-0.521 0.756,-0.796 1.275,-0.61 0.521,0.184 0.794,0.754 0.61,1.275 -0.824,2.337 -2.873,3.314 -4.746,3.314 z"
       id="path19"
       inkscape:connector-curvature="0" /><path
       style="fill:#e53384"
       d="m 28.461,50.169 c -1.303,0 -2.657,-0.5 -3.722,-1.751 -0.358,-0.42 -0.308,-1.052 0.113,-1.41 0.419,-0.358 1.052,-0.308 1.41,0.113 1.155,1.356 2.755,1.195 3.774,0.648 1.014,-0.545 2.024,-1.787 1.532,-3.492 -0.153,-0.531 0.153,-1.085 0.684,-1.238 0.531,-0.153 1.085,0.153 1.238,0.684 0.77,2.667 -0.704,4.839 -2.507,5.808 -0.74,0.397 -1.619,0.638 -2.522,0.638 z"
       id="path21"
       inkscape:connector-curvature="0" /><path
       style="fill:#e53384"
       d="m 40.633,26.996 c -0.958,0 -1.886,-0.274 -2.653,-0.72 -1.776,-1.03 -3.184,-3.254 -2.326,-5.9 0.169,-0.525 0.736,-0.813 1.259,-0.643 0.525,0.17 0.813,0.734 0.643,1.259 -0.549,1.694 0.426,2.973 1.427,3.554 0.996,0.579 2.583,0.788 3.777,-0.526 0.372,-0.407 1.003,-0.439 1.413,-0.067 0.409,0.372 0.438,1.004 0.067,1.413 -1.058,1.163 -2.357,1.63 -3.607,1.63 z"
       id="path23"
       inkscape:connector-curvature="0" /></g><g
     id="g25"
     inkscape:export-filename="/home/al/Projekte/piripherals/doc/_static/logo.png"
     inkscape:export-xdpi="170.28999"
     inkscape:export-ydpi="170.28999" /><g
     id="g27"
     inkscape:export-filename="/home/al/Projekte/piripherals/doc/_static/logo.png"
     inkscape:export-xdpi="170.28999"
     inkscape:export-ydpi="170.28999" /><g
     id="g29"
     inkscape:export-filename="/home/al/Projekte/piripherals/doc/_static/logo.png"
     inkscape:export-xdpi="170.28999"
     inkscape:export-ydpi="170.28999" /><g
     id="g31"
     inkscape:export-filename="/home/al/Projekte/piripherals/doc/_static/logo.png"
     inkscape:export-xdpi="170.28999"
     inkscape:export-ydpi="170.28999" /><g
     id="g33"
     inkscape:export-filename="/home/al/Projekte/piripherals/doc/_static/logo.png"
     inkscape:export-xdpi="170.28999"
     inkscape:export-ydpi="170.28999" /><g
     id="g35"
     inkscape:export-filename="/home/al/Projekte/piripherals/doc/_static/logo.png"
     inkscape:export-xdpi="170.28999"
     inkscape:export-ydpi="170.28999" /><g
     id="g37"
     inkscape:export-filename="/home/al/Projekte/piripherals/doc/_static/logo.png"
     inkscape:export-xdpi="170.28999"
     inkscape:export-ydpi="170.28999" /><g
     id="g39"
     inkscape:export-filename="/home/al/Projekte/piripherals/doc/_static/logo.png"
     inkscape:export-xdpi="170.28999"
     inkscape:export-ydpi="170.28999" /><g
     id="g41"
     inkscape:export-filename="/home/al/Projekte/piripherals/doc/_static/logo.png"
     inkscape:export-xdpi="170.28999"
     inkscape:export-ydpi="170.28999" /><g
     id="g43"
     inkscape:export-filename="/home/al/Projekte/piripherals/doc/_static/logo.png"
     inkscape:export-xdpi="170.28999"
     inkscape:export-ydpi="170.28999" /><g
     id="g45"
     inkscape:export-filename="/home/al/Projekte/piripherals/doc/_static/logo.png"
     inkscape:export-xdpi="170.28999"
     inkscape:export-ydpi="170.28999" /><g
     id="g47"
     inkscape:export-filename="/home/al/Projekte/piripherals/doc/_static/logo.png"
     inkscape:export-xdpi="170.28999"
     inkscape:export-ydpi="170.28999" /><g
     id="g49"
     inkscape:export-filename="/home/al/Projekte/piripherals/doc/_static/logo.png"
     inkscape:export-xdpi="170.28999"
     inkscape:export-ydpi="170.28999" /><g
     id="g51"
     inkscape:export-filename="/home/al/Projekte/piripherals/doc/_static/logo.png"
     inkscape:export-xdpi="170.28999"
     inkscape:export-ydpi="170.28999" /><g
     id="g53"
     inkscape:export-filename="/home/al/Projekte/piripherals/doc/_static/logo.png"
     inkscape:export-xdpi="170.28999"
     inkscape:export-ydpi="170.28999" /><rect
     style="opacity:0.6;fill:#ffffff;fill-opacity:1;stroke:none;stroke-width:0.70866144;stroke-linecap:butt;stroke-linejoin:round;stroke-miterlimit:4;stroke-dasharray:none;stroke-dashoffset:0;stroke-opacity:1"
     id="rect4426"
     width="16.597128"
     height="21.207441"
     x="73.541084"
     y="17.964912"
     inkscape:export-filename="/home/al/Projekte/piripherals/doc/_static/logo.png"
     inkscape:export-xdpi="170.28999"
     inkscape:export-ydpi="170.28999" /></svg>