<?xml version="1.0" encoding="UTF-8" standalone="no"?>
<!-- Generator: Adobe Illustrator 18.0.0, SVG Export Plug-In . SVG Version: 6.00 Build 0)  -->

<svg
   xmlns:dc="http://purl.org/dc/elements/1.1/"
   xmlns:cc="http://creativecommons.org/ns#"
   xmlns:rdf="http://www.w3.org/1999/02/22-rdf-syntax-ns#"
   xmlns:svg="http://www.w3.org/2000/svg"
   xmlns="http://www.w3.org/2000/svg"
   xmlns:sodipodi="http://sodipodi.sourceforge.net/DTD/sodipodi-0.dtd"
   xmlns:inkscape="http://www.inkscape.org/namespaces/inkscape"
   version="1.1"
   id="Capa_1"
   x="0px"
   y="0px"
   viewBox="0 0 170 100"
   xml:space="preserve"
   inkscape:version="0.91 r13725"
   sodipodi:docname="logo.svg"
   width="170"
   height="100"
   inkscape:export-filename="/home/al/Projekte/piripherals/doc/_static/logo.png"
   inkscape:export-xdpi="90"
   inkscape:export-ydpi="90"><metadata
     id="metadata59"><rdf:RDF><cc:Work
         rdf:about=""><dc:format>image/svg+xml</dc:format><dc:type
           rdf:resource="http://purl.org/dc/dcmitype/StillImage" /><dc:title></dc:title></cc:Work></rdf:RDF></metadata><defs
     id="defs57"><clipPath
       clipPathUnits="userSpaceOnUse"
       id="clipPath4220"><rect
         style="opacity:0.6;fill:#c62a6a;fill-opacity:1;stroke:none;stroke-width:0.70866144;stroke-linecap:butt;stroke-linejoin:round;stroke-miterlimit:4;stroke-dasharray:none;stroke-dashoffset:0;stroke-opacity:1"
         id="rect4222"
         width="109.1034"
         height="85.362289"
         x="-31.818645"
         y="-95.466354"
         transform="matrix(-0.62189329,0.78310199,-0.76558136,-0.64333908,0,0)" /></clipPath></defs><sodipodi:namedview
     pagecolor="#ffffff"
     bordercolor="#666666"
     borderopacity="1"
     objecttolerance="10"
     gridtolerance="10"
     guidetolerance="10"
     inkscape:pageopacity="0"
     inkscape:pageshadow="2"
     inkscape:window-width="1948"
     inkscape:window-height="1390"
     id="namedview55"
     showgrid="false"
     inkscape:zoom="5.6568542"
     inkscape:cx="81.966218"
     inkscape:cy="63.196426"
     inkscape:window-x="0"
     inkscape:window-y="25"
     inkscape:window-maximized="0"
     inkscape:current-layer="Capa_1" /><g
     id="g4189"><path
       style="fill:#c62a6a;fill-opacity:1"
       d="m 77.757155,51.155836 c 2.221176,-2.195476 3.379523,-5.397621 2.820799,-8.711011 -0.641542,-3.804526 -3.372668,-6.727801 -6.81676,-7.812408 -0.0087,-0.06258 -0.01151,-0.122505 -0.02201,-0.184787 -0.773572,-4.587496 -4.58117,-7.892914 -9.018302,-8.235424 -1.778629,-4.079454 -6.149883,-6.592565 -10.73738,-5.818993 -4.33659,0.731262 -9.53175,-1.327446 -10.157588,2.796937 -2.183277,-2.669772 -3.692761,1.368671 -7.337134,1.983207 -3.31339,0.558724 -5.708612,-2.546911 -7.054299,0.271398 -2.195476,-2.221176 -5.647622,1.870477 -8.961011,2.429201 -3.86147,0.651144 -6.812791,3.454712 -7.857803,6.970821 -4.4771002,1.56934 -7.3122623,6.168758 -6.4966814,11.005381 0.1650366,0.978714 0.4720686,1.898712 0.8911033,2.74492 -2.1069683,2.189028 -3.1936826,5.305892 -2.6496619,8.532087 0.5518223,3.272462 2.6513382,5.890475 5.4171624,7.250503 -1.1453169,1.944515 -1.641641,4.286524 -1.2371513,6.685262 0.8233826,4.88289 5.0845449,8.316793 9.8867229,8.262843 -0.495577,1.489067 -0.647337,3.117806 -0.368275,4.772722 0.773571,4.587496 4.581169,7.892914 9.018302,8.235424 1.778629,4.079454 6.149883,6.592565 10.73738,5.818993 2.062416,-0.347777 3.863772,-1.310361 5.25853,-2.665561 2.15754,2.86444 5.796041,4.461628 9.577434,3.823987 3.464645,-0.58423 6.197648,-2.902614 7.479777,-5.913344 1.380889,0.396693 2.865664,0.508677 4.376442,0.25392 5.119561,-0.863291 8.650646,-5.503196 8.236892,-10.583266 4.934838,-1.275021 8.160229,-6.1324 7.296938,-11.251961 -0.204645,-1.213604 -0.630721,-2.329478 -1.213823,-3.334688 3.258277,-2.079376 5.135045,-5.96999 4.451794,-10.021864 -0.558724,-3.313389 -2.70309,-5.958611 -5.521398,-7.304299 z"
       id="path5"
       inkscape:connector-curvature="0"
       sodipodi:nodetypes="cscscscscscscscscscscscscscsc" /><path
       style="fill:#e53384"
       d="m 22.049885,55.05381 c -2.211893,0.372983 -4.64931,-0.05967 -6.876775,-1.786822 -0.787352,-0.610243 -0.931028,-1.744455 -0.319005,-2.532107 0.609943,-0.789132 1.744455,-0.931028 2.532108,-0.319005 2.538838,1.967457 5.305754,1.098266 6.905535,-0.245754 1.590004,-1.336882 2.917778,-3.903279 1.419516,-6.732484 -0.466864,-0.880236 -0.12955,-1.97294 0.750985,-2.438024 0.882315,-0.465385 1.97294,-0.129551 2.438025,0.750985 2.34238,4.427268 0.538932,8.80696 -2.288599,11.183377 -1.242266,1.043994 -2.832137,1.828169 -4.56179,2.119834 z"
       id="path13"
       inkscape:connector-curvature="0" /><path
       style="fill:#e53384"
       d="m 62.95267,70.717735 c -2.211892,0.372983 -4.64931,-0.05967 -6.876775,-1.786822 -0.787352,-0.610243 -0.931028,-1.744455 -0.319004,-2.532108 0.611722,-0.789431 1.744455,-0.931027 2.532107,-0.319004 2.538839,1.967457 5.307234,1.096187 6.905535,-0.245754 1.590005,-1.336882 2.917778,-3.903279 1.419517,-6.732484 -0.466864,-0.880236 -0.12955,-1.97294 0.750985,-2.438025 0.879935,-0.468643 1.972939,-0.12955 2.438024,0.750986 2.342381,4.427268 0.538933,8.80696 -2.288599,11.183377 -1.242266,1.043994 -2.832136,1.828169 -4.56179,2.119834 z"
       id="path15"
       inkscape:connector-curvature="0" /><path
       style="fill:#e53384"
       d="m 33.675767,76.886227 c -0.403941,0.06811 -0.804966,0.110117 -1.203074,0.126006 -3.702516,0.15035 -7.998969,-1.875763 -9.25427,-6.737062 -0.248672,-0.964611 0.330044,-1.949785 1.296433,-2.198757 0.962531,-0.250152 1.949785,0.330043 2.198757,1.296433 0.802799,3.111186 3.525225,4.116176 5.613956,4.032983 2.074475,-0.09177 4.695962,-1.302453 5.243843,-4.456561 0.16931,-0.982021 1.106433,-1.643315 2.085795,-1.468067 0.982321,0.17109 1.639157,1.103474 1.468067,2.085795 -0.763555,4.403818 -4.116543,6.757205 -7.449507,7.31923 z"
       id="path17"
       inkscape:connector-curvature="0" /><path
       style="fill:#e53384"
       d="m 46.889356,57.570633 c -0.403941,0.06811 -0.804966,0.110117 -1.203074,0.126007 -3.701036,0.148271 -7.99719,-1.876063 -9.25249,-6.737363 -0.248673,-0.96461 0.330043,-1.949784 1.296433,-2.198756 0.961051,-0.248072 1.949784,0.330043 2.198757,1.296433 0.802798,3.111185 3.525225,4.116176 5.613656,4.031203 2.076274,-0.08109 4.696262,-1.300674 5.243843,-4.456561 0.16931,-0.98202 1.106433,-1.643315 2.085795,-1.468067 0.98232,0.17109 1.639156,1.103475 1.468067,2.085795 -0.765035,4.405897 -4.118023,6.759285 -7.450987,7.321309 z"
       id="path19"
       inkscape:connector-curvature="0" /><path
       style="fill:#e53384"
       d="m 49.941706,89.096932 c -2.318661,0.390987 -4.878109,-0.09246 -7.148637,-1.99902 -0.763082,-0.639957 -0.86375,-1.779591 -0.222013,-2.542973 0.638178,-0.762781 1.779591,-0.863749 2.542973,-0.222012 2.462188,2.066396 5.261044,1.299794 6.910196,0.02065 1.640856,-1.274083 3.065447,-3.787263 1.67833,-6.673642 -0.431596,-0.898993 -0.05331,-1.976645 0.845681,-2.408241 0.898993,-0.431595 1.976645,-0.05331 2.40824,0.845682 2.170476,4.514819 0.199269,8.822145 -2.718367,11.08748 -1.197688,0.928502 -2.689534,1.621115 -4.296403,1.892075 z"
       id="path21"
       inkscape:connector-curvature="0" /><path
       style="fill:#e53384"
       d="m 64.648081,44.208658 c -1.704741,0.287464 -3.438315,0.07835 -4.937005,-0.485149 -3.469423,-1.299945 -6.642278,-4.835012 -5.909461,-9.80097 0.143197,-0.984938 1.065743,-1.667566 2.047421,-1.521989 0.985238,0.144976 1.666966,1.062183 1.521989,2.047421 -0.468621,3.179174 1.650156,5.162563 3.605753,5.896073 1.9461,0.731452 4.832846,0.627158 6.563257,-2.069357 0.539839,-0.835873 1.653088,-1.082158 2.494299,-0.543219 0.839432,0.539239 1.080679,1.655168 0.543219,2.494299 -1.533711,2.387005 -3.705123,3.607808 -5.929472,3.982891 z"
       id="path23"
       inkscape:connector-curvature="0" /></g><g
     id="g25"
     inkscape:export-filename="/home/al/Projekte/piripherals/doc/_static/logo.png"
     inkscape:export-xdpi="167.10001"
     inkscape:export-ydpi="167.10001"
     transform="translate(0,44)" /><g
     id="g27"
     inkscape:export-filename="/home/al/Projekte/piripherals/doc/_static/logo.png"
     inkscape:export-xdpi="167.10001"
     inkscape:export-ydpi="167.10001"
     transform="translate(0,44)" /><g
     id="g29"
     inkscape:export-filename="/home/al/Projekte/piripherals/doc/_static/logo.png"
     inkscape:export-xdpi="167.10001"
     inkscape:export-ydpi="167.10001"
     transform="translate(0,44)" /><g
     id="g31"
     inkscape:export-filename="/home/al/Projekte/piripherals/doc/_static/logo.png"
     inkscape:export-xdpi="167.10001"
     inkscape:export-ydpi="167.10001"
     transform="translate(0,44)" /><g
     id="g33"
     inkscape:export-filename="/home/al/Projekte/piripherals/doc/_static/logo.png"
     inkscape:export-xdpi="167.10001"
     inkscape:export-ydpi="167.10001"
     transform="translate(0,44)" /><g
     id="g35"
     inkscape:export-filename="/home/al/Projekte/piripherals/doc/_static/logo.png"
     inkscape:export-xdpi="167.10001"
     inkscape:export-ydpi="167.10001"
     transform="translate(0,44)" /><g
     id="g37"
     inkscape:export-filename="/home/al/Projekte/piripherals/doc/_static/logo.png"
     inkscape:export-xdpi="167.10001"
     inkscape:export-ydpi="167.10001"
     transform="translate(0,44)" /><g
     id="g39"
     inkscape:export-filename="/home/al/Projekte/piripherals/doc/_static/logo.png"
     inkscape:export-xdpi="167.10001"
     inkscape:export-ydpi="167.10001"
     transform="translate(0,44)" /><g
     id="g41"
     inkscape:export-filename="/home/al/Projekte/piripherals/doc/_static/logo.png"
     inkscape:export-xdpi="167.10001"
     inkscape:export-ydpi="167.10001"
     transform="translate(0,44)" /><g
     id="g43"
     inkscape:export-filename="/home/al/Projekte/piripherals/doc/_static/logo.png"
     inkscape:export-xdpi="167.10001"
     inkscape:export-ydpi="167.10001"
     transform="translate(0,44)" /><g
     id="g45"
     inkscape:export-filename="/home/al/Projekte/piripherals/doc/_static/logo.png"
     inkscape:export-xdpi="167.10001"
     inkscape:export-ydpi="167.10001"
     transform="translate(0,44)" /><g
     id="g47"
     inkscape:export-filename="/home/al/Projekte/piripherals/doc/_static/logo.png"
     inkscape:export-xdpi="167.10001"
     inkscape:export-ydpi="167.10001"
     transform="translate(0,44)" /><g
     id="g49"
     inkscape:export-filename="/home/al/Projekte/piripherals/doc/_static/logo.png"
     inkscape:export-xdpi="167.10001"
     inkscape:export-ydpi="167.10001"
     transform="translate(0,44)" /><g
     id="g51"
     inkscape:export-filename="/home/al/Projekte/piripherals/doc/_static/logo.png"
     inkscape:export-xdpi="167.10001"
     inkscape:export-ydpi="167.10001"
     transform="translate(0,44)" /><g
     id="g53"
     inkscape:export-filename="/home/al/Projekte/piripherals/doc/_static/logo.png"
     inkscape:export-xdpi="167.10001"
     inkscape:export-ydpi="167.10001"
     transform="translate(0,44)" /><g
     id="g4316"
     transform="matrix(-0.11255566,-0.04793486,-0.04793486,0.11255566,112.95431,63.379921)"
     style="fill:#333333"
     inkscape:export-filename="/home/al/Projekte/piripherals/doc/_static/logo.png"
     inkscape:export-xdpi="167.10001"
     inkscape:export-ydpi="167.10001"><g
       id="g4276"
       style="fill:#333333"><path
         id="path4278"
         d="m 295,176.828 0,172.869 c 0,14.188 -11.502,25.701 -25.696,25.701 -14.194,0 -25.697,-11.513 -25.697,-25.701 l 0,-7.583 c -2.292,0.343 -4.618,0.579 -7.009,0.579 l -79.901,0 c -25.804,0 -46.721,-20.913 -46.721,-46.72 l 0,-10.748 -20.05,0 c -8.715,0 -12.416,-4.52 -13.98,-11.299 C 31.086,264.103 -2.976,215.529 28.543,170.869 41.79,152.105 70.086,131.525 60.627,105.345 51.114,79.006 20.98,64.051 3.53,43.435 -8.069,29.741 11.65,9.815 23.339,23.626 c 17.475,20.643 42.783,34.711 56.86,58.304 12.938,21.678 13.795,48.255 -0.733,69.514 -12.354,18.071 -38.093,36.635 -34.897,61.065 2.209,16.864 15.981,28.695 31.725,33.313 l 0.012,-0.624 c 1.759,-5.959 5.542,-9.811 13.615,-9.811 l 20.049,0 0,-4.832 c 0,-25.796 20.917,-46.718 46.72,-46.718 l 79.902,0 c 2.392,0 4.717,0.241 7.01,0.583 l 0,-7.586 c 0,-14.189 11.504,-25.696 25.698,-25.696 14.194,0 25.7,11.502 25.7,25.69 z m 99.357,38.465 c 0,-10.062 -8.166,-18.221 -18.224,-18.221 l -73.193,0 0,36.443 73.193,0 c 10.063,0.001 18.224,-8.153 18.224,-18.222 z m -18.224,76.472 -73.193,0 0,36.444 73.193,0 c 10.058,0 18.224,-8.159 18.224,-18.223 0,-10.062 -8.161,-18.221 -18.224,-18.221 z"
         inkscape:connector-curvature="0"
         style="fill:#333333" /></g><g
       id="g4280"
       style="fill:#333333" /><g
       id="g4282"
       style="fill:#333333" /><g
       id="g4284"
       style="fill:#333333" /><g
       id="g4286"
       style="fill:#333333" /><g
       id="g4288"
       style="fill:#333333" /><g
       id="g4290"
       style="fill:#333333" /><g
       id="g4292"
       style="fill:#333333" /><g
       id="g4294"
       style="fill:#333333" /><g
       id="g4296"
       style="fill:#333333" /><g
       id="g4298"
       style="fill:#333333" /><g
       id="g4300"
       style="fill:#333333" /><g
       id="g4302"
       style="fill:#333333" /><g
       id="g4304"
       style="fill:#333333" /><g
       id="g4306"
       style="fill:#333333" /><g
       id="g4308"
       style="fill:#333333" /></g><g
     id="g4198"
     clip-path="url(#clipPath4220)"><path
       sodipodi:nodetypes="cscscscscscscscscscscscscscsc"
       inkscape:connector-curvature="0"
       id="path4200"
       d="m 77.757155,51.155836 c 2.221176,-2.195476 3.379523,-5.397621 2.820799,-8.711011 -0.641542,-3.804526 -3.372668,-6.727801 -6.81676,-7.812408 -0.0087,-0.06258 -0.01151,-0.122505 -0.02201,-0.184787 -0.773572,-4.587496 -4.58117,-7.892914 -9.018302,-8.235424 -1.778629,-4.079454 -6.149883,-6.592565 -10.73738,-5.818993 -4.33659,0.731262 -9.53175,-1.327446 -10.157588,2.796937 -2.183277,-2.669772 -3.692761,1.368671 -7.337134,1.983207 -3.31339,0.558724 -5.708612,-2.546911 -7.054299,0.271398 -2.195476,-2.221176 -5.647622,1.870477 -8.961011,2.429201 -3.86147,0.651144 -6.812791,3.454712 -7.857803,6.970821 -4.4771002,1.56934 -7.3122623,6.168758 -6.4966814,11.005381 0.1650366,0.978714 0.4720686,1.898712 0.8911033,2.74492 -2.1069683,2.189028 -3.1936826,5.305892 -2.6496619,8.532087 0.5518223,3.272462 2.6513382,5.890475 5.4171624,7.250503 -1.1453169,1.944515 -1.641641,4.286524 -1.2371513,6.685262 0.8233826,4.88289 5.0845449,8.316793 9.8867229,8.262843 -0.495577,1.489067 -0.647337,3.117806 -0.368275,4.772722 0.773571,4.587496 4.581169,7.892914 9.018302,8.235424 1.778629,4.079454 6.149883,6.592565 10.73738,5.818993 2.062416,-0.347777 3.863772,-1.310361 5.25853,-2.665561 2.15754,2.86444 5.796041,4.461628 9.577434,3.823987 3.464645,-0.58423 6.197648,-2.902614 7.479777,-5.913344 1.380889,0.396693 2.865664,0.508677 4.376442,0.25392 5.119561,-0.863291 8.650646,-5.503196 8.236892,-10.583266 4.934838,-1.275021 8.160229,-6.1324 7.296938,-11.251961 -0.204645,-1.213604 -0.630721,-2.329478 -1.213823,-3.334688 3.258277,-2.079376 5.135045,-5.96999 4.451794,-10.021864 -0.558724,-3.313389 -2.70309,-5.958611 -5.521398,-7.304299 z"
       style="fill:#c62a6a;fill-opacity:1" /><path
       inkscape:connector-curvature="0"
       id="path4202"
       d="m 22.049885,55.05381 c -2.211893,0.372983 -4.64931,-0.05967 -6.876775,-1.786822 -0.787352,-0.610243 -0.931028,-1.744455 -0.319005,-2.532107 0.609943,-0.789132 1.744455,-0.931028 2.532108,-0.319005 2.538838,1.967457 5.305754,1.098266 6.905535,-0.245754 1.590004,-1.336882 2.917778,-3.903279 1.419516,-6.732484 -0.466864,-0.880236 -0.12955,-1.97294 0.750985,-2.438024 0.882315,-0.465385 1.97294,-0.129551 2.438025,0.750985 2.34238,4.427268 0.538932,8.80696 -2.288599,11.183377 -1.242266,1.043994 -2.832137,1.828169 -4.56179,2.119834 z"
       style="fill:#e53384" /><path
       inkscape:connector-curvature="0"
       id="path4204"
       d="m 62.95267,70.717735 c -2.211892,0.372983 -4.64931,-0.05967 -6.876775,-1.786822 -0.787352,-0.610243 -0.931028,-1.744455 -0.319004,-2.532108 0.611722,-0.789431 1.744455,-0.931027 2.532107,-0.319004 2.538839,1.967457 5.307234,1.096187 6.905535,-0.245754 1.590005,-1.336882 2.917778,-3.903279 1.419517,-6.732484 -0.466864,-0.880236 -0.12955,-1.97294 0.750985,-2.438025 0.879935,-0.468643 1.972939,-0.12955 2.438024,0.750986 2.342381,4.427268 0.538933,8.80696 -2.288599,11.183377 -1.242266,1.043994 -2.832136,1.828169 -4.56179,2.119834 z"
       style="fill:#e53384" /><path
       inkscape:connector-curvature="0"
       id="path4206"
       d="m 33.675767,76.886227 c -0.403941,0.06811 -0.804966,0.110117 -1.203074,0.126006 -3.702516,0.15035 -7.998969,-1.875763 -9.25427,-6.737062 -0.248672,-0.964611 0.330044,-1.949785 1.296433,-2.198757 0.962531,-0.250152 1.949785,0.330043 2.198757,1.296433 0.802799,3.111186 3.525225,4.116176 5.613956,4.032983 2.074475,-0.09177 4.695962,-1.302453 5.243843,-4.456561 0.16931,-0.982021 1.106433,-1.643315 2.085795,-1.468067 0.982321,0.17109 1.639157,1.103474 1.468067,2.085795 -0.763555,4.403818 -4.116543,6.757205 -7.449507,7.31923 z"
       style="fill:#e53384" /><path
       inkscape:connector-curvature="0"
       id="path4208"
       d="m 46.889356,57.570633 c -0.403941,0.06811 -0.804966,0.110117 -1.203074,0.126007 -3.701036,0.148271 -7.99719,-1.876063 -9.25249,-6.737363 -0.248673,-0.96461 0.330043,-1.949784 1.296433,-2.198756 0.961051,-0.248072 1.949784,0.330043 2.198757,1.296433 0.802798,3.111185 3.525225,4.116176 5.613656,4.031203 2.076274,-0.08109 4.696262,-1.300674 5.243843,-4.456561 0.16931,-0.98202 1.106433,-1.643315 2.085795,-1.468067 0.98232,0.17109 1.639156,1.103475 1.468067,2.085795 -0.765035,4.405897 -4.118023,6.759285 -7.450987,7.321309 z"
       style="fill:#e53384" /><path
       inkscape:connector-curvature="0"
       id="path4210"
       d="m 49.941706,89.096932 c -2.318661,0.390987 -4.878109,-0.09246 -7.148637,-1.99902 -0.763082,-0.639957 -0.86375,-1.779591 -0.222013,-2.542973 0.638178,-0.762781 1.779591,-0.863749 2.542973,-0.222012 2.462188,2.066396 5.261044,1.299794 6.910196,0.02065 1.640856,-1.274083 3.065447,-3.787263 1.67833,-6.673642 -0.431596,-0.898993 -0.05331,-1.976645 0.845681,-2.408241 0.898993,-0.431595 1.976645,-0.05331 2.40824,0.845682 2.170476,4.514819 0.199269,8.822145 -2.718367,11.08748 -1.197688,0.928502 -2.689534,1.621115 -4.296403,1.892075 z"
       style="fill:#e53384" /><path
       inkscape:connector-curvature="0"
       id="path4212"
       d="m 64.648081,44.208658 c -1.704741,0.287464 -3.438315,0.07835 -4.937005,-0.485149 -3.469423,-1.299945 -6.642278,-4.835012 -5.909461,-9.80097 0.143197,-0.984938 1.065743,-1.667566 2.047421,-1.521989 0.985238,0.144976 1.666966,1.062183 1.521989,2.047421 -0.468621,3.179174 1.650156,5.162563 3.605753,5.896073 1.9461,0.731452 4.832846,0.627158 6.563257,-2.069357 0.539839,-0.835873 1.653088,-1.082158 2.494299,-0.543219 0.839432,0.539239 1.080679,1.655168 0.543219,2.494299 -1.533711,2.387005 -3.705123,3.607808 -5.929472,3.982891 z"
       style="fill:#e53384" /></g><g
     id="g7"
     transform="matrix(1.7794789,-0.30006653,0.30006653,1.7794789,-15.773246,8.5088953)"><path
       inkscape:connector-curvature="0"
       id="path9"
       d="m 26.976,0 c 0,0 0.043,0.016 0.106,0.041 C 27.144,0.016 27.187,0 27.187,0 l -0.211,0 z"
       style="fill:#659c35" /><path
       inkscape:connector-curvature="0"
       id="path11"
       d="M 13.605,16.221 C 14.607,14.879 16.196,14 18,14 c 1.862,0 3.505,0.928 4.5,2.344 C 23.495,14.928 25.138,14 27,14 c 2.048,0 3.831,1.122 4.778,2.782 C 32.5,14.586 34.563,13 37,13 c 1.929,0 3.621,0.995 4.601,2.498 C 43.925,13.774 45.651,11.593 46.5,9 36.575,5.625 33.484,10 33.484,10 32.883,2.606 27.843,0.342 27.082,0.041 26.319,0.342 21.28,2.606 20.679,10 c 0,0 -3.091,-4.375 -13.016,-1 0.972,2.969 3.087,5.402 5.942,7.221 z"
       style="fill:#659c35" /></g></svg>